<?xml version="1.0" encoding="UTF-8"?>
<svg id="katman_1" data-name="katman 1" xmlns="http://www.w3.org/2000/svg" viewBox="0 0 430 395">
  <defs>
    <style>
      .cls-1 {
        fill: none;
        stroke: #0071bc;
        stroke-miterlimit: 10;
      }
    </style>
  </defs>
  <path class="cls-1" d="m379.14,346.55c.02-.31.05-.62.08-.94,2.79-31.35,35.53-80.98,39.36-98.74,3.83-17.76,1.04-44.23-.52-56.07-1.57-11.84-14.8-29.08-14.8-29.08h-6.27l8.53,21.42,1.22-.35v-1.39h6.62l2.44,7.31-.17,4.35-8.88-.35.17-8.71-.17,23.34,9.06-.35-.35-10.62h-9.75l.7,25.77,9.4-.17-.17-10.97-8.88-.17v25.95h9.4v-11.32l-10.27.17s-4.88,72.27-23.16,87.25c-18.29,14.98-70.53,26.99-89.51,22.99s-16.2-15.32-16.2-15.32l11.32-10.97s1.22,8.01,24.73,10.1c23.51,2.09,61.65-9.75,68.44-15.32,6.79-5.57,24.55-45.8,19.33-66-5.22-20.2-17.76-40.75-17.76-40.75,0,0,.87,15.32-5.22,22.99-6.1,7.66.7,6.44.7,6.44,0,0,13.41,8.88,6.97,28.73-6.44,19.85-8.36,28.73-33.09,38.49s-52.24,3.66-52.24,3.66c0,0,13.76-23.16,19.85-28.39,6.1-5.22,18.98-17.41,18.98-17.41l-4.53-6.79s35-11.32,40.58-27.51c5.57-16.2,1.92-36.74-2.96-41.62s-10.27-10.1-17.41-13.06c-7.14-2.96-23.34-4.7-34.13-1.39-10.8,3.31-21.59,18.63-24.55,26.47s.52,22.64.52,22.64l33.09,30.65s31.52-10.8,38.31-25.77c6.79-14.98,1.04-34.13-1.22-37.62s-12.36-12.54-23.86-13.93-26.82,3.31-32.39,9.75c-5.57,6.44-9.4,13.06-9.93,18.46s1.04,13.06,4.35,16.72,17.24,20.72,23.16,21.07,29.43-10.1,31.35-24.55c1.92-14.45-1.39-26.64-6.97-30.65s-26.12-4.53-30.65-3.66c-4.53.87-12.02,6.97-13.41,9.58s-4.53,9.4-4.01,12.71-2.09,12.54,7.14,18.81c9.23,6.27,19.33,6.27,26.12,2.61s13.41-13.58,12.54-21.77-4.88-16.02-10.8-18.11c-5.92-2.09-22.81,2.79-26.12,7.84-3.31,5.05-6.1,12.71-3.83,18.11s6.97,12.36,16.37,10.97c9.4-1.39,16.72-9.75,15.15-18.98s-8.01-13.41-14.28-13.41-14.28,8.01-14.28,8.01l2.61,2.79.7-4.01-3.66,2.26s-1.92,6.62-.35,11.32,4.01,7.14,4.01,7.14l2.26.17-1.04-3.13-.87,3.83s5.92,2.61,9.58,1.92,5.4-1.04,5.4-1.04l-.17-3.66-2.44,3.48s2.61,0,5.05-1.22,5.75-11.49,5.75-11.49l-2.44.35,1.57-3.66-.17,4.7s1.57-5.4,0-7.49-8.18-6.97-8.18-6.97l-.7,2.09-2.26-3.83,3.66.52s-4.53,1.92-8.71,2.61-6.62,5.22-6.97,8.18.17,8.18.87,9.4,4.01,4.01,7.31,4.18,9.58-2.61,11.15-6.27.7-9.75-1.74-11.32-3.83-3.83-7.66-3.31-27.69,6.79-32.91,12.02-4.53,9.58-4.53,9.58l-38.31,55.9s-20.37,41.97-24.55,50.5c-4.18,8.53-8.53,17.07-8.53,17.07,0,0,0,8.36,7.66,11.67s12.19,4.01,12.19,4.01c0,0-15.32-2.79-18.11-7.66s-2.79-7.14-2.79-7.14c0,0-1.74,4.35-1.39,6.44s9.06,13.93,14.8,15.67c5.75,1.74,17.07.7,17.07.7l2.85-3.5,10.74-13.21,11.49-1.57-2.09-6.44-18.63,22.29,20.2.52,1.39,17.76s-20.03,13.58-27.51,15.15-21.59,3.31-21.59,3.31c0,0,14.28-8.01,14.63-9.4s-3.13-8.01-3.13-8.01c0,0-17.76,9.58-17.59,12.19s4.01,4.18,4.01,4.18l-11.15,1.04s-4.01-6.27-4.53-7.49,2.26-12.02,12.02-14.63,15.85,2.96,15.85,2.96c0,0-1.22-5.92,1.04-8.53s2.61-4.35,2.61-4.35l-8.36,7.31s-11.49-5.4-13.76-12.02-3.66-18.29-3.66-18.29l-1.23-.86-7.3-5.06s-12.36,8.18-13.41,9.58,6.97,12.02,6.97,12.02c0,0-4.53-7.49-3.31-9.4s12.36-6.97,12.36-6.97l5.22,7.49-.35,6.1-13.06,6.79,3.66,27.86,5.75,8.01,2.26.35-5.57-7.49-4.01-27.51-11.67-15.5s.87-3.48,6.27-7.31c5.4-3.83,8.18-6.27,8.18-6.27l9.4,5.75,4.35-1.74,21.59-46.5-9.75-1.22-9.75-4.01,12.71-.17s.17,2.79,2.26,2.79,1.57-3.48,1.57-3.48l1.39-.17s-.87,2.61.17,2.96,1.74,0,1.74,0v-3.48h3.83l-3.13,6.62,4.35-9.23s-3.31-4.01-3.31-4.18-2.26-7.49-2.44-9.93.52-6.27.52-6.27c0,0-.52,1.57-7.31,1.57s-8.88-.52-8.88-.52c0,0-3.83,4.01-4.88,9.23-1.04,5.22,1.22,13.06,1.22,13.06h13.06s-1.92-13.76-.52-16.72l1.39-2.96,4.35,4.88,1.39,5.57s3.13,5.22,3.31,5.4-4.7,1.22-4.7,1.22l-.35-6.44h-4.35l.7,8.53s10.8-2.61,12.02-5.57,2.26-7.31,2.26-7.31c0,0-3.13-10.27-2.96-12.71s22.46-15.5,22.46-15.5l19.5-26.64s8.88-17.59,10.45-22.46,13.23-18.98,16.89-21.59,19.68-5.92,19.68-5.92l-.7-11.15s4.88-6.1,4.7-6.79-2.79-6.27-2.79-6.27l-7.31-1.04s1.92,2.26-1.22,4.01-6.1-.35-6.1-.35l-1.74-17.59,20.55,5.4,4.01-.52-23.16-8.53,1.39-4.7,20.72,6.97,1.57-1.92-21.94-7.14-.7-5.57,23.86,8.88,6.27-.7-29.78-10.97,2.26-8.88s5.75,4.35,12.71,6.44,14.45,1.04,14.45,1.04v-2.26l8.36-1.74,2.26,1.74s11.67-6.27,15.32-15.67c3.66-9.4,2.96-15.32,2.96-15.32l-4.01-13.41h-6.79s6.97,15.32.52,25.95c-6.44,10.62-18.98,14.11-18.98,14.11,0,0-14.63.7-16.37-1.22s-9.06-10.1-9.06-10.1l2.61-5.57,4.18,10.62-2.26-9.4,1.22-1.04,5.05,6.79s-5.4-9.4-5.22-11.67,1.22-4.35,1.22-4.35c0,0,4.01,11.32,10.27,11.84,6.27.52,12.54-1.39,15.5-8.18s-6.79-15.32-6.79-15.32l7.14,2.26,7.49-.35.35-5.22,10.45-3.83h9.4l.87,15.67s1.92,13.06-3.83,20.72c-5.75,7.66-7.49,13.06-14.45,15.85-6.97,2.79-23.68,5.4-23.68,5.4l1.74,2.61,15.5-1.22-2.26,18.63-6.1.52.87,20.55,6.97-.35,14.11-5.92-17.24-1.22v-1.74h15.32v-1.92h-15.67v-1.74l14.98-.17-.52-1.74-14.8.35v-1.39l14.28-.52v-1.57h-13.76l-.17-1.57,13.76-.17.35-1.39s-7.31-1.92-7.49-2.79-.7-6.1,2.44-7.31,6.1-3.66,6.1-3.66l9.58-21.42,5.05-2.26-11.67,31.17s.52,2.96,0,3.66-4.01.52-4.01.52l11.15-28.73,4.53,1.92-1.92,8.18,2.79,3.66-4.7,14.98-6.1-1.92-.17,2.61-2.96.7.17,3.66h.87l.87,11.67,1.74-.17.17-11.84-2.96-.35.35-2.61,4.01-.17-.17,15.85,1.74-.17-.35-15.32.87,4.35h1.57l-.52,10.62h1.04l.35-11.15h1.74l-.17,12.02-1.39,1.57v5.4h.87l.17,5.22-2.44-.35s-.35-6.44-1.74-8.18-1.74-.87-1.74-.87l.7,9.23-2.79-.52-.7-9.93h-1.39l.52,8.71-1.04-.17-.35-9.4-1.04.87-.17,8.36s1.57-.7-8.71-1.04c-10.27-.35-29.26,7.49-29.26,7.49,0,0,22.12-6.79,28.04-6.1s16.89,2.96,19.85,3.31c2.96.35,3.31-6.44,3.13-6.97s.35-11.15.35-11.15v-8.36l-2.61-.17-.17-1.57,3.31-4.01-.17-1.39-3.48,4.35-1.04-.7s2.61-1.92,3.13-3.66,4.01-10.27,4.01-10.27l.7-2.61-3.13-4.7,4.53-13.06,1.74-7.84-.35,6.62,2.09.7s-.7,5.05-1.22,6.62-1.92,2.79-1.92,2.79v1.74l-2.79,1.74s1.39,4.01,1.74,4.53-.17,7.49-.17,7.49l-2.96,5.05,5.05-9.93-1.39-6.1,1.57-2.09s-.17-1.22.52-1.92,2.61-6.97,2.61-6.97l.35-3.48-2.09-1.04v-4.88s-.52-2.44-.52-3.48.52-4.01,2.96-3.83,2.09-7.66,1.92-8.36-1.57-3.83-1.57-3.83c0,0-.35.52-1.74-1.04s-2.09-6.1-3.66-8.01-4.01-5.22-4.01-5.22l.17-2.44,6.1.87s-2.26,3.48-2.26,3.66,3.31,4.53,3.31,4.53l1.22.7.35-3.83,1.22-.52-.17-4.01,1.22.17s.35.87,1.39-.35-1.22-3.48-1.22-3.48c0,0-9.23-.17-16.2,0s-16.37,3.31-16.37,3.31c0,0-3.31-6.1-15.67-6.27s-26.3,7.84-31,13.23c-4.7,5.4-6.79,15.5-6.27,23.16.52,7.66,5.4,19.68,5.4,19.68,0,0-3.66,25.95-2.61,30.82s2.61,10.45,2.61,10.45l-10.97-.87v-1.57l9.23.35.17-1.57-10.1.17,1.92-1.22h8.01l-.35-1.22h-7.49l1.57-1.22,5.75.17-1.57-2.96h-14.28c-6.27,0-7.31-6.79-6.97-8.01s0-5.92-1.74-6.27-2.09-3.31-.52-3.66,2.44-.35,2.44-.35c0,0,1.04-1.04-.35-1.39s-4.88-.35-4.7-1.57,1.92-10.8,1.92-11.32-9.75.7-9.93-2.26,5.75-14.8,6.79-16.37,3.48-6.44,2.96-9.93c-.52-3.48-4.53-7.14-3.66-12.02s3.66-18.11,9.58-25.6c5.92-7.49,15.67-17.59,26.64-19.16,10.97-1.57,31.87-2.44,44.23,4.18,12.36,6.62,20.03,19.68,20.03,19.68l2.79,7.49s-6.1-3.31-6.27-3.48-1.39-3.83.52-4.01,4.35,3.31,2.26,3.66-26.82-13.93-26.82-13.93c0,0,5.05-3.31,3.31-5.75s-5.75-2.44-8.18-1.04-3.83,2.61-2.09,4.53c1.74,1.92,5.75,2.26,5.75,2.26,0,0-11.15,13.58-14.98,13.93-3.83.35-8.18-2.26-4.53-3.66s4.88,2.26,4.88,2.26c0,0-16.37,6.44-22.64,12.02-6.27,5.57-10.1,12.36-10.1,12.36,0,0-4.01,1.22-4.18-1.22s2.96-3.31,3.83-2.61.35,4.7.35,4.7l-11.15,7.66s-1.04,3.83-3.83,2.09-5.05-5.57-5.05-5.57l7.14.35s1.04-24.38,1.39-26.82,7.14-11.67,7.14-11.67c0,0-.52-1.92-2.79-1.74s-5.75,6.1-5.4,7.66,3.48,8.18,3.48,8.18c0,0,2.61-3.83,5.22-6.1s4.7-5.4,4.7-5.4l.52,6.97s-1.04-.7-2.79-.17-6.1,5.57-6.1,5.57c0,0-7.31-16.02-6.1-17.76s11.49-11.32,16.72-13.41,17.76-6.62,31.52-6.27,30.65,5.4,37.44,10.8c6.79,5.4,18.11,26.99,18.11,26.99,0,0,.52,3.13.17,3.83s-2.44,2.26-2.79,2.09-.52,2.44-.52,2.44c0,0-1.39,1.57-1.39,2.44s-.7,4.88-.7,4.88l-2.26-2.79s1.74,4.53,2.09,4.7,2.44,2.09,2.79,2.96,2.09,7.49.35,10.97c-1.74,3.48-4.18,3.31-4.18,3.31,0,0,.17,4.53.35,5.75s1.04,3.66,1.04,3.66l1.39,3.31-4.88,12.89s1.04,4.35,1.04,4.7-6.1,13.06-6.1,13.06l-.52,6.1-.87,25.08s-.7.35,7.31,2.61,11.67,5.05,11.67,5.05"/>
  <path class="cls-1" d="m232.93,283.8h-6.1s1.74,3.83-4.35,6.27-9.06,2.61-11.32-3.13-1.74-18.46-.87-21.77,3.31-11.32,6.1-11.84,4.01,0,4.01,0c0,0-12.71-6.27-20.72-7.14s-11.49,7.84-11.49,7.84l-10.27-1.39s-1.04.87,0,1.39,9.93,1.22,9.93,1.22c0,0,2.09,2.26-.35,1.74s-10.1-.87-10.1-.87c0,0-1.04,1.39,0,1.74s10.45,1.57,10.45,1.57c0,0,1.57,2.79-.52,2.79s-10.45-1.57-10.45-1.57c0,0-8.01,19.68-3.31,22.29s39.01,8.71,39.01,8.71c0,0-52.94-11.67-55.2-12.71s-61.3-27.69-64.43-27.69-8.18-3.48-8.18-3.48c0,0,2.79-6.1-.52-8.01s-7.31-1.74-7.49,1.92c-.17,3.66,6.27,5.4,6.27,5.4l4.01-.17s1.04-5.92-1.57-7.66-2.61-5.05-2.44-5.4-3.83,1.74-4.7.7-2.61-12.19-4.18-15.32-11.15-21.42-11.15-21.42c0,0-9.4,2.44-11.84,3.83s4.18,14.8,4.18,14.8c0,0,2.96-2.26,5.4-1.04s1.74,3.13,1.04,4.01-5.57,1.57-5.92.17.52-2.61.52-2.61c0,0-.52-2.44,2.26-2.44s8.53,5.75,9.23,7.31,2.61,7.31,2.61,7.31c0,0-1.57-5.22-3.83-5.22s-.87,4.18-.17,4.35,3.48,3.48,3.48,3.48l-.86.45-2.45,1.29,5.57,9.06s2.79,2.44,5.05,3.13,5.4,2.44,5.4,2.44c0,0-6.27.17-12.36-1.22s-7.14-1.04-9.06-5.75-2.44-12.19-2.44-12.19l-14.63-.7-2.96-4.53-3.13-.35v9.23l-2.96-.17s-2.79-10.62-3.13-11.15c-.24-.35,1.05-.23,1.91-.11.4.06.71.11.71.11l1.92,3.66-.7-3.31,4.35.35s.87-2.44,2.44-3.83,1.74-.87,1.92-2.44-.87-5.57.7-5.57,5.4,1.22,5.92,1.92-.35,2.79-.35,2.79l-3.83-.17-.52.87,7.66.17v.87l-8.18-.35.7,1.39h8.36s-2.09-4.35-3.13-6.97-2.61-9.06-2.61-9.06c0,0,9.75-3.48,10.45-3.83s-5.05,2.26-5.05.87,1.74-5.22-1.57-6.79-18.81-6.27-18.81-6.27c0,0-.35.35.17,2.26s-2.26,4.35-3.48,4.01-4.35-5.4-2.26-6.97c2.09-1.57,4.18.87,4.53,1.39s.35,3.13.35,3.13l-5.05,3.83-3.31,4.53v4.18h-4.53v-3.83h3.66l.17,3.13-.17-4.18,3.83-5.4-1.04-5.05-6.44,9.58s-.52,1.22-.7,2.79-1.92.7-1.92.7c0,0-1.04,7.66-1.04,8.01s1.74,1.57,1.74,1.57l4.88-2.96,1.04-4.01-.17,4.7-14.45,7.66s-1.92,3.83,1.57,3.83,13.76-4.53,13.76-4.53c0,0,5.05,4.53,5.4,4.53s4.18.52,4.18.52c0,0,1.57-1.57,1.57-3.31s-2.79-2.96-3.13-3.13-3.13-2.26-3.13-2.26l17.94-9.75-16.72,9.75s5.57,3.66,5.92,4.53-.17,4.01-.17,4.01c0,0,2.96.17,3.31.17s2.26-1.04,1.92-2.44-2.79-1.74-3.31-1.57l-1.04.35v4.35l4.01.17s-1.57.7,0,1.22,12.54.17,12.54.17l-.17-2.26h.7v-1.04h-8.88l-.7-1.39.35-1.74,1.04-.7,3.31.17.35,10.27s-1.74-.87-3.48.17-1.22,3.13-1.22,3.13h2.44s.7-1.57,1.74-1.74,1.39,0,1.39,0v-1.74s8.88-.17,9.75-.17,3.13-.52,3.31-1.39-.52-3.31-.52-3.31h-1.04l.35,3.13s-3.31.7-5.75.52l-2.44-.17-.17,2.44s5.92.17,6.1.17,3.66-1.39,3.66-1.39v1.04s-3.66,1.92-6.44,1.92-3.31-.35-3.31-.35l.17,1.22s5.05.35,7.14-.35,2.26-1.04,2.26-1.04l3.48,4.53"/>
  <path class="cls-1" d="m197.75,246.18s-83.42-10.97-86.72-10.62-3.48-1.04-3.31-1.22-3.13-.7-3.13-.7v2.09l-1.57-.35s.35-1.57,0-1.74-3.83-.52-4.53.35-1.74,1.74-2.61,1.74-4.88-.87-4.88-.87c0,0,1.39-1.39,0-1.39s-7.66.52-7.66.52v2.21s2.26,2.14,2.44,2.49,1.57,3.66,1.57,3.66"/>
  <path class="cls-1" d="m293.53,126.55c1.22,2.09,12.19,11.32,12.19,11.32v-2.09l-1.74-.52,2.96-1.22-.35-1.39,1.57-1.22,5.92-.17-4.88.17"/>
</svg>