<svg width="109" height="54" viewBox="0 0 109 54" fill="none" xmlns="http://www.w3.org/2000/svg">
<path d="M31.4038 7.92C31.6598 8.944 31.7878 10.224 31.7878 11.76C31.7878 13.232 31.6598 14.512 31.4038 15.6C31.6598 16.624 31.7878 17.904 31.7878 19.44C31.7878 20.912 31.6598 22.192 31.4038 23.28H28.5238C28.7798 24.304 28.9078 25.584 28.9078 27.12C28.9078 28.592 28.7798 29.872 28.5238 30.96H25.6438C25.8998 31.984 26.0278 33.264 26.0278 34.8C26.0278 36.272 25.8998 37.552 25.6438 38.64H23.7238C23.9798 39.664 24.1078 40.944 24.1078 42.48C24.1078 43.952 23.9798 45.232 23.7238 46.32H19.8838C20.1398 47.344 20.2678 48.624 20.2678 50.16C20.2678 51.632 20.1398 52.912 19.8838 54H12.2038C11.9478 52.912 11.8198 51.632 11.8198 50.16C11.8198 48.624 11.9478 47.344 12.2038 46.32H8.36375C8.10775 45.232 7.97975 43.952 7.97975 42.48C7.97975 40.944 8.10775 39.664 8.36375 38.64H6.44375C6.18775 37.552 6.05975 36.272 6.05975 34.8C6.05975 33.264 6.18775 31.984 6.44375 30.96H3.56375C3.30775 29.872 3.17975 28.592 3.17975 27.12C3.17975 25.584 3.30775 24.304 3.56375 23.28H0.68375C0.42775 22.192 0.29975 20.912 0.29975 19.44C0.29975 17.904 0.42775 16.624 0.68375 15.6C0.42775 14.512 0.29975 13.232 0.29975 11.76C0.29975 10.224 0.42775 8.944 0.68375 7.92C0.42775 6.832 0.29975 5.552 0.29975 4.08C0.29975 2.544 0.42775 1.264 0.68375 0.24H8.36375C8.61975 1.264 8.74775 2.544 8.74775 4.08C8.74775 5.552 8.61975 6.832 8.36375 7.92C8.61975 8.944 8.74775 10.224 8.74775 11.76C8.74775 13.232 8.61975 14.512 8.36375 15.6C8.61975 16.624 8.74775 17.904 8.74775 19.44C8.74775 20.912 8.61975 22.192 8.36375 23.28H11.2438C11.4998 24.304 11.6278 25.584 11.6278 27.12C11.6278 28.592 11.4998 29.872 11.2438 30.96H14.1238C14.3798 31.984 14.5078 33.264 14.5078 34.8C14.5078 36.272 14.3798 37.552 14.1238 38.64H17.9638C17.7078 37.552 17.5798 36.272 17.5798 34.8C17.5798 33.264 17.7078 31.984 17.9638 30.96H20.8438C20.5878 29.872 20.4598 28.592 20.4598 27.12C20.4598 25.584 20.5878 24.304 20.8438 23.28H23.7238C23.4678 22.192 23.3398 20.912 23.3398 19.44C23.3398 17.904 23.4678 16.624 23.7238 15.6C23.4678 14.512 23.3398 13.232 23.3398 11.76C23.3398 10.224 23.4678 8.944 23.7238 7.92C23.4678 6.832 23.3398 5.552 23.3398 4.08C23.3398 2.544 23.4678 1.264 23.7238 0.24H31.4038C31.6598 1.264 31.7878 2.544 31.7878 4.08C31.7878 5.552 31.6598 6.832 31.4038 7.92ZM69.8413 7.92C70.0973 8.944 70.2253 10.224 70.2253 11.76C70.2253 13.232 70.0973 14.512 69.8413 15.6C70.0973 16.624 70.2253 17.904 70.2253 19.44C70.2253 20.912 70.0973 22.192 69.8413 23.28C70.0973 24.304 70.2253 25.584 70.2253 27.12C70.2253 28.592 70.0973 29.872 69.8413 30.96C70.0973 31.984 70.2253 33.264 70.2253 34.8C70.2253 36.272 70.0973 37.552 69.8413 38.64C70.0973 39.664 70.2253 40.944 70.2253 42.48C70.2253 43.952 70.0973 45.232 69.8413 46.32C70.0973 47.344 70.2253 48.624 70.2253 50.16C70.2253 51.632 70.0973 52.912 69.8413 54H62.1613C61.9053 52.912 61.7773 51.632 61.7773 50.16C61.7773 48.624 61.9053 47.344 62.1613 46.32C61.9053 45.232 61.7773 43.952 61.7773 42.48C61.7773 40.944 61.9053 39.664 62.1613 38.64C61.9053 37.552 61.7773 36.272 61.7773 34.8C61.7773 33.264 61.9053 31.984 62.1613 30.96C61.9053 29.872 61.7773 28.592 61.7773 27.12C61.7773 25.584 61.9053 24.304 62.1613 23.28C61.9053 22.192 61.7773 20.912 61.7773 19.44C61.7773 17.904 61.9053 16.624 62.1613 15.6H59.2812C59.5373 16.624 59.6653 17.904 59.6653 19.44C59.6653 20.912 59.5373 22.192 59.2812 23.28C59.5373 24.304 59.6653 25.584 59.6653 27.12C59.6653 28.592 59.5373 29.872 59.2812 30.96H57.3613C57.6173 31.984 57.7453 33.264 57.7453 34.8C57.7453 36.272 57.6173 37.552 57.3613 38.64C57.6173 39.664 57.7453 40.944 57.7453 42.48C57.7453 43.952 57.6173 45.232 57.3613 46.32H51.6013C51.3453 45.232 51.2173 43.952 51.2173 42.48C51.2173 40.944 51.3453 39.664 51.6013 38.64C51.3453 37.552 51.2173 36.272 51.2173 34.8C51.2173 33.264 51.3453 31.984 51.6013 30.96H49.6813C49.4253 29.872 49.2973 28.592 49.2973 27.12C49.2973 25.584 49.4253 24.304 49.6813 23.28C49.4253 22.192 49.2973 20.912 49.2973 19.44C49.2973 17.904 49.4253 16.624 49.6813 15.6H46.8013C47.0573 16.624 47.1853 17.904 47.1853 19.44C47.1853 20.912 47.0573 22.192 46.8013 23.28C47.0573 24.304 47.1853 25.584 47.1853 27.12C47.1853 28.592 47.0573 29.872 46.8013 30.96C47.0573 31.984 47.1853 33.264 47.1853 34.8C47.1853 36.272 47.0573 37.552 46.8013 38.64C47.0573 39.664 47.1853 40.944 47.1853 42.48C47.1853 43.952 47.0573 45.232 46.8013 46.32C47.0573 47.344 47.1853 48.624 47.1853 50.16C47.1853 51.632 47.0573 52.912 46.8013 54H39.1213C38.8653 52.912 38.7373 51.632 38.7373 50.16C38.7373 48.624 38.8653 47.344 39.1213 46.32C38.8653 45.232 38.7373 43.952 38.7373 42.48C38.7373 40.944 38.8653 39.664 39.1213 38.64C38.8653 37.552 38.7373 36.272 38.7373 34.8C38.7373 33.264 38.8653 31.984 39.1213 30.96C38.8653 29.872 38.7373 28.592 38.7373 27.12C38.7373 25.584 38.8653 24.304 39.1213 23.28C38.8653 22.192 38.7373 20.912 38.7373 19.44C38.7373 17.904 38.8653 16.624 39.1213 15.6C38.8653 14.512 38.7373 13.232 38.7373 11.76C38.7373 10.224 38.8653 8.944 39.1213 7.92C38.8653 6.832 38.7373 5.552 38.7373 4.08C38.7373 2.544 38.8653 1.264 39.1213 0.24H48.7213C48.9773 1.264 49.1053 2.544 49.1053 4.08C49.1053 5.552 48.9773 6.832 48.7213 7.92H51.6013C51.8573 8.944 51.9853 10.224 51.9853 11.76C51.9853 13.232 51.8573 14.512 51.6013 15.6H53.0413C53.2973 16.624 53.4253 17.904 53.4253 19.44C53.4253 20.912 53.2973 22.192 53.0413 23.28H55.9213C55.6653 22.192 55.5373 20.912 55.5373 19.44C55.5373 17.904 55.6653 16.624 55.9213 15.6H57.3613C57.1053 14.512 56.9773 13.232 56.9773 11.76C56.9773 10.224 57.1053 8.944 57.3613 7.92H60.2413C59.9853 6.832 59.8573 5.552 59.8573 4.08C59.8573 2.544 59.9853 1.264 60.2413 0.24H69.8413C70.0973 1.264 70.2253 2.544 70.2253 4.08C70.2253 5.552 70.0973 6.832 69.8413 7.92ZM108.279 30.96C108.535 31.984 108.663 33.264 108.663 34.8C108.663 36.272 108.535 37.552 108.279 38.64C108.535 39.664 108.663 40.944 108.663 42.48C108.663 43.952 108.535 45.232 108.279 46.32H104.439C104.695 47.344 104.823 48.624 104.823 50.16C104.823 51.632 104.695 52.912 104.439 54H81.3988C81.1428 52.912 81.0148 51.632 81.0148 50.16C81.0148 48.624 81.1428 47.344 81.3988 46.32H77.5588C77.3028 45.232 77.1748 43.952 77.1748 42.48C77.1748 40.944 77.3028 39.664 77.5588 38.64H85.2388C85.4948 39.664 85.6228 40.944 85.6228 42.48C85.6228 43.952 85.4948 45.232 85.2388 46.32H100.599C100.343 45.232 100.215 43.952 100.215 42.48C100.215 40.944 100.343 39.664 100.599 38.64C100.343 37.552 100.215 36.272 100.215 34.8C100.215 33.264 100.343 31.984 100.599 30.96H81.3988C81.1428 29.872 81.0148 28.592 81.0148 27.12C81.0148 25.584 81.1428 24.304 81.3988 23.28H77.5588C77.3028 22.192 77.1748 20.912 77.1748 19.44C77.1748 17.904 77.3028 16.624 77.5588 15.6C77.3028 14.512 77.1748 13.232 77.1748 11.76C77.1748 10.224 77.3028 8.944 77.5588 7.92H81.3988C81.1428 6.832 81.0148 5.552 81.0148 4.08C81.0148 2.544 81.1428 1.264 81.3988 0.24H104.439C104.695 1.264 104.823 2.544 104.823 4.08C104.823 5.552 104.695 6.832 104.439 7.92H108.279C108.535 8.944 108.663 10.224 108.663 11.76C108.663 13.232 108.535 14.512 108.279 15.6H100.599C100.343 14.512 100.215 13.232 100.215 11.76C100.215 10.224 100.343 8.944 100.599 7.92H85.2388C85.4948 8.944 85.6228 10.224 85.6228 11.76C85.6228 13.232 85.4948 14.512 85.2388 15.6C85.4948 16.624 85.6228 17.904 85.6228 19.44C85.6228 20.912 85.4948 22.192 85.2388 23.28H104.439C104.695 24.304 104.823 25.584 104.823 27.12C104.823 28.592 104.695 29.872 104.439 30.96H108.279Z" fill="black"/>
</svg>
