<?xml version="1.0" ?><svg data-name="Layer 1" id="Layer_1" viewBox="0 0 512 512" xmlns="http://www.w3.org/2000/svg"><path d="M396.86,341.89,320,312.58V266.87a81,81,0,0,0,34.89-66.55V131.16A61.82,61.82,0,0,0,293.17,69.4H253a61.87,61.87,0,0,0-60.92,51.66H185.3V74.33a4.93,4.93,0,0,0-9.86,0v47.45a17.3,17.3,0,0,0-12.33,16.55v40.72a17.29,17.29,0,0,0,17.26,17.28h10.86v4a80.77,80.77,0,0,0,25.92,59.32c-4.21,6.39-11.24,20.21-10.05,39.94-1.79,1.14-5.09,3.31-9.1,6.27l-32-7.76c-13.71-2.84-25.92-1.07-36.3,5.31-17.18,10.54-39.13,32.06-46.06,74.68a4.94,4.94,0,0,0,.91,3.74,5,5,0,0,0,3.31,1.95l14.44,1.9v52a4.93,4.93,0,0,0,9.86,0V387l27.68,3.64,4.85,17.86v29.2a4.93,4.93,0,0,0,9.86,0V407.82a5.65,5.65,0,0,0-.17-1.3l-5.87-21.6a.5.5,0,0,0,0-.13l-7.69-28.32,16-16,35.84,35.85a4.93,4.93,0,0,0,3.49,1.43H264.7v59.94a4.93,4.93,0,0,0,9.86,0V281.29a80.38,80.38,0,0,0,35.6-8.56V316a5,5,0,0,0,3.17,4.61l80,30.51a39.32,39.32,0,0,1,25.18,36.54v50a4.93,4.93,0,1,0,9.85,0v-50A49.23,49.23,0,0,0,396.86,341.89ZM345.05,131.16V149.6l-31.44-27.33a4.58,4.58,0,0,0-4-1.15l-35.06,5.44V79.26h18.61A52,52,0,0,1,345.05,131.16ZM248.24,277.68A80.14,80.14,0,0,0,264.7,281v58.87C243.21,317.06,246,289,248.24,277.68ZM201.08,150.44H264.7v16h-37a4.93,4.93,0,0,0,0,9.86h37v17.62c-37.57-1-57.89-13-63.62-17Zm63.62,53.31v38.77c-30.22-2.76-37.55-30.89-39.32-44.25A163.13,163.13,0,0,0,264.7,203.75ZM253,79.26H264.7v61.32H201.08v-9.42c0-1.53.08-3,.21-4.53a5.07,5.07,0,0,0,.05-.56A52,52,0,0,1,253,79.26ZM180.37,186.47a7.41,7.41,0,0,1-7.4-7.42V138.33a7.41,7.41,0,0,1,7.4-7.41h10.86v55.55Zm20.71,13.85V193a4.81,4.81,0,0,0,0-3.12v-1.31a98.37,98.37,0,0,0,14,6.42c1.3,20.86,12.92,54.68,49.61,57.46v18.64a70.5,70.5,0,0,1-17.87-4.29,4.12,4.12,0,0,0-.58-.23l-.08,0A71.24,71.24,0,0,1,201.08,200.32ZM153.34,330l-21.52,21.53a5,5,0,0,0-1.27,4.78l6.52,24-29.28-3.86h0l-13.45-1.77c7.14-35.63,25.82-53.81,40.58-62.88,8.16-5,18-6.39,29-4.09l24.38,5.93c-7.73,6.68-15.76,15.05-20.33,24l-7.6-7.6A5,5,0,0,0,153.34,330Zm44.86,37.89L175.37,345c5-13.18,22.47-27.27,33.16-34.61a96.2,96.2,0,0,0,6.88,20.8c8.56,18.77,18.94,30,28.33,36.65Zm26.17-40.74c-14.34-31.42-4.73-53,.44-61.2A81,81,0,0,0,239,274.16c-2.7,13-7.29,51.62,25.73,79.15v13.81C256.08,365,238,357.06,224.37,327.14Zm50.19-190.62,34.32-5.31,36.17,31.46v37.65a71.2,71.2,0,0,1-70.49,71.12Z"/><path d="M372.94,385.09A4.93,4.93,0,0,0,368,390v47.65a4.93,4.93,0,0,0,9.86,0V390A4.93,4.93,0,0,0,372.94,385.09Z"/><path d="M186.4,406.43h24.66a4.93,4.93,0,0,0,0-9.86H186.4a4.93,4.93,0,0,0,0,9.86Z"/><path d="M227.73,417.24H186.4a4.93,4.93,0,1,0,0,9.85h41.33a4.93,4.93,0,1,0,0-9.85Z"/></svg>